<svg xmlns="http://www.w3.org/2000/svg" viewBox="0 0 32 32" width="32" height="32">
  <!-- Background circle -->
  <circle cx="16" cy="16" r="15" fill="#0070ad" stroke="#12abdb" stroke-width="2"/>
  
  <!-- Compass outer ring -->
  <circle cx="16" cy="16" r="12" fill="none" stroke="#ffffff" stroke-width="1.5" opacity="0.8"/>
  
  <!-- Compass cardinal points -->
  <line x1="16" y1="6" x2="16" y2="9" stroke="#ffffff" stroke-width="2"/>
  <line x1="16" y1="23" x2="16" y2="26" stroke="#ffffff" stroke-width="2"/>
  <line x1="6" y1="16" x2="9" y2="16" stroke="#ffffff" stroke-width="2"/>
  <line x1="23" y1="16" x2="26" y2="16" stroke="#ffffff" stroke-width="2"/>
  
  <!-- Compass needle (pointing to AI/catalog direction) -->
  <polygon points="16,10 18,16 16,18 14,16" fill="#12abdb" stroke="#ffffff" stroke-width="0.5"/>
  
  <!-- Catalog/document lines representing organized content -->
  <rect x="12" y="12" width="8" height="1" fill="#ffffff" opacity="0.9" rx="0.5"/>
  <rect x="12" y="14" width="6" height="1" fill="#ffffff" opacity="0.7" rx="0.5"/>
  <rect x="12" y="16" width="8" height="1" fill="#ffffff" opacity="0.9" rx="0.5"/>
  <rect x="12" y="18" width="5" height="1" fill="#ffffff" opacity="0.7" rx="0.5"/>
  
  <!-- Small AI spark/star in corner -->
  <polygon points="24,8 25,10 27,10 25.5,11.5 26,13.5 24,12.5 22,13.5 22.5,11.5 21,10 23,10" fill="#dcf4ff" opacity="0.9"/>
</svg>